<?xml version="1.0" encoding="utf-8"?>
<!-- Generator: Adobe Illustrator 16.0.0, SVG Export Plug-In . SVG Version: 6.00 Build 0)  -->
<!DOCTYPE svg PUBLIC "-//W3C//DTD SVG 1.1//EN" "http://www.w3.org/Graphics/SVG/1.1/DTD/svg11.dtd">
<svg version="1.1" id="Capa_1" xmlns="http://www.w3.org/2000/svg" xmlns:xlink="http://www.w3.org/1999/xlink" x="0px" y="0px"
	 width="85.04px" height="56.01px" viewBox="0 0 85.04 56.01" enable-background="new 0 0 85.04 56.01" xml:space="preserve">
<g>
	<g>
		<path fill="#FFFFFF" d="M65.793,27.993c-0.428-0.584-10.538-14.242-23.271-14.242c-12.736,0-22.846,13.658-23.27,14.242
			l-0.418,0.575l0.418,0.572c0.426,0.581,10.534,14.244,23.27,14.244c12.733,0,22.843-13.663,23.271-14.244l0.414-0.572
			L65.793,27.993z M42.522,41.617c-10.599,0-19.613-10.463-21.683-13.049c2.07-2.593,11.083-13.054,21.683-13.054
			c10.595,0,19.612,10.461,21.683,13.054C62.134,31.157,53.123,41.617,42.522,41.617z"/>
	</g>
</g>
<path fill="none" d="M-2.782,34.911c0,10.237,20.103,18.536,44.9,18.536c24.798,0,44.899-8.299,44.899-18.536"/>
<text transform="matrix(0.7972 0.6037 -0.6037 0.7972 -0.2422 41.5664)"><tspan x="0" y="0" fill="#FFFFFF" font-family="'Myriad-Roman'" font-size="11.2">H</tspan><tspan x="8.494" y="-0.262" fill="#FFFFFF" font-family="'Myriad-Roman'" font-size="11.2" rotate="-14.55">O</tspan><tspan x="16.618" y="-2.423" fill="#FFFFFF" font-family="'Myriad-Roman'" font-size="11.2" rotate="-23.053">M</tspan><tspan x="25.329" y="-6.214" fill="#FFFFFF" font-family="'Myriad-Roman'" font-size="11.2" rotate="-29.064">O</tspan><tspan x="32.343" y="-10.158" fill="#FFFFFF" font-family="'Myriad-Roman'" font-size="11.2" rotate="-33.326">C</tspan><tspan x="37.914" y="-13.879" fill="#FFFFFF" font-family="'Myriad-Roman'" font-size="11.2" rotate="-35.88">I</tspan><tspan x="40.245" y="-15.536" fill="#FFFFFF" font-family="'Myriad-Roman'" font-size="11.2" rotate="-38.101">S</tspan><tspan x="44.774" y="-19.093" fill="#FFFFFF" font-family="'Myriad-Roman'" font-size="11.2" rotate="-41.18">T</tspan><tspan x="49.082" y="-22.906" fill="#FFFFFF" font-family="'Myriad-Roman'" font-size="11.2" rotate="-43.606">I</tspan><tspan x="51.256" y="-24.893" fill="#FFFFFF" font-family="'Myriad-Roman'" font-size="11.2" rotate="-46.831">N</tspan><tspan x="56.604" y="-30.609" fill="#FFFFFF" font-family="'Myriad-Roman'" font-size="11.2" rotate="-52.41">U</tspan><tspan x="61.319" y="-36.806" fill="#FFFFFF" font-family="'Myriad-Roman'" font-size="11.2" rotate="-59.299">R</tspan><tspan x="64.577" y="-42.516" fill="#FFFFFF" font-family="'Myriad-Roman'" font-size="11.2" rotate="-65.998">I</tspan><tspan x="66.264" y="-45.866" fill="#FFFFFF" font-family="'Myriad-Roman'" font-size="11.2" rotate="-78.673">A</tspan></text>
<path fill="none" d="M-10.032,33.826c0-11.891,23.349-21.53,52.151-21.53s52.15,9.639,52.15,21.53"/>
<text transform="matrix(0.9919 -0.1267 0.1267 0.9919 21.7949 13.8789)"><tspan x="0" y="0" fill="#FFFFFF" font-family="'Dubai-Regular'" font-size="12">M</tspan><tspan x="9.698" y="0.056" fill="#FFFFFF" font-family="'Dubai-Regular'" font-size="12" rotate="3.894">É</tspan><tspan x="16.081" y="0.484" fill="#FFFFFF" font-family="'Dubai-Regular'" font-size="12" rotate="6.893">X</tspan><tspan x="22.979" y="1.356" fill="#FFFFFF" font-family="'Dubai-Regular'" font-size="12" rotate="9.151">I</tspan><tspan x="25.946" y="1.795" fill="#FFFFFF" font-family="'Dubai-Regular'" font-size="12" rotate="11.418">C</tspan><tspan x="32.563" y="3.097" fill="#FFFFFF" font-family="'Dubai-Regular'" font-size="12" rotate="15.129">O</tspan></text>
<g>
	<g>
		<path fill="#FFFFFF" d="M41.169,31.731c-0.235,0-0.426,0.192-0.426,0.429c0,1.042-0.84,1.892-1.875,1.892
			c-0.236,0-0.426,0.191-0.426,0.43c0,0.236,0.19,0.43,0.426,0.43c1.502,0,2.727-1.234,2.727-2.751
			C41.596,31.924,41.404,31.731,41.169,31.731z"/>
	</g>
</g>
<g>
	<g>
		<path fill="#FFFFFF" d="M40.78,25.221c-0.236,0-0.426,0.191-0.426,0.429c0,1.043-0.841,1.891-1.875,1.891
			c-0.235,0-0.426,0.191-0.426,0.43c0,0.236,0.19,0.428,0.426,0.428c1.503,0,2.726-1.233,2.726-2.748
			C41.204,25.413,41.014,25.221,40.78,25.221z"/>
	</g>
</g>
<g>
	<g>
		<path fill="#FFFFFF" d="M52.973,21.631c-1.138-1.35-2.799-2.034-4.938-2.034c-0.949,0-1.928,0.245-2.906,0.729
			c-0.697,0.345-1.294,0.863-1.742,1.507v-1.119c0.02-0.923-0.639-1.734-1.537-1.889c-0.579-0.1-1.209-0.047-1.873,0.158
			c-0.006,0.001-0.013,0.004-0.02,0.007c-0.823,0.3-1.499,0.893-1.895,1.65c-0.087-0.007-0.168-0.01-0.249-0.01
			c-1.238,0-2.395,0.597-3.093,1.595c-0.778,1.11-0.86,2.566-0.246,3.757c-1.062,0.671-1.705,1.814-1.705,3.083
			c0,1.327,0.721,2.53,1.873,3.184c-0.46,0.902-0.511,1.978-0.115,2.913c0.002,0.004,0.003,0.008,0.005,0.013
			c0.657,1.412,1.924,2.189,3.431,2.125c0.587,1.271,1.739,2.015,3.206,2.063c0.003,0,0.008,0,0.013,0
			c0.236,0,0.524-0.053,0.88-0.161c0.383-0.119,0.708-0.354,0.939-0.66c0.035-0.004,0.067-0.011,0.1-0.02
			c0.18-0.061,4.485-1.496,8.495-5.216c1.938-1.798,2.963-4.048,2.963-6.509C54.562,24.651,54.013,22.865,52.973,21.631z
			 M42.537,20.708v8.368v8.318c0.006,0.447-0.289,0.852-0.721,0.984c-0.329,0.101-0.521,0.124-0.624,0.126
			c-1.23-0.044-2.137-0.685-2.553-1.809c-0.063-0.168-0.224-0.276-0.398-0.276c-0.017,0-0.035,0-0.051,0.001
			c-1.282,0.154-2.332-0.431-2.879-1.604c-0.287-0.68-0.256-1.46,0.065-2.124c0.266,0.148,0.565,0.233,0.875,0.24
			c0.015,0,0.03,0,0.044,0c0.485,0,0.936-0.188,1.275-0.528c0.166-0.168,0.166-0.438,0-0.607c-0.167-0.167-0.436-0.167-0.603,0
			c-0.182,0.185-0.429,0.282-0.696,0.277c-0.271-0.007-0.524-0.118-0.716-0.311c-0.003-0.003-0.009-0.007-0.012-0.01
			c-0.005-0.005-0.01-0.009-0.015-0.013c-0.007-0.008-0.015-0.012-0.023-0.019c-0.003-0.004-0.008-0.007-0.011-0.011
			c-0.012-0.006-0.021-0.013-0.031-0.018c-0.003-0.002-0.004-0.003-0.008-0.006c-0.015-0.008-0.028-0.014-0.042-0.02
			c-1.086-0.442-1.79-1.464-1.79-2.604c0-0.909,0.434-1.735,1.162-2.259c0.276,0.678,0.928,1.147,1.69,1.147
			c0.236,0,0.426-0.193,0.426-0.43c0-0.236-0.19-0.429-0.426-0.429c-0.528,0-0.959-0.425-0.979-0.966
			c-0.001-0.002-0.001-0.005-0.001-0.007c0-0.007,0-0.014-0.002-0.018c0-0.01-0.001-0.019-0.003-0.027
			c0-0.006-0.001-0.012-0.003-0.016c-0.001-0.01-0.003-0.02-0.007-0.03c-0.001-0.004-0.001-0.008-0.003-0.013
			c-0.003-0.01-0.007-0.02-0.011-0.029c-0.002-0.003-0.002-0.008-0.003-0.012c-0.005-0.012-0.01-0.021-0.015-0.031
			c-0.002-0.003-0.003-0.007-0.007-0.01c-0.005-0.011-0.012-0.021-0.018-0.031c-0.001-0.002-0.003-0.004-0.003-0.005
			c-0.664-0.955-0.664-2.232-0.001-3.178c0.541-0.772,1.437-1.231,2.398-1.231c0.039,0,0.082,0.001,0.123,0.003
			c0.182,0.832,0.928,1.455,1.816,1.455c0.234,0,0.426-0.191,0.426-0.428c0-0.238-0.191-0.43-0.426-0.43
			c-0.528,0-0.96-0.4-1.003-0.909c0.286-0.641,0.81-1.128,1.489-1.38c0.531-0.163,1.024-0.206,1.469-0.129
			c0.485,0.083,0.841,0.525,0.83,1.027C42.537,20.702,42.537,20.705,42.537,20.708z M51.022,32.675
			c-2.207,2.048-4.548,3.393-6.158,4.172V26.5c0-0.236-0.191-0.428-0.425-0.428c-0.236,0-0.426,0.191-0.426,0.428v10.738
			c-0.243,0.106-0.453,0.192-0.626,0.262v-0.053c0.002-0.028,0.002-0.056,0-0.084v-8.489v-4.313c0-1.469,0.832-2.829,2.117-3.465
			c0.86-0.426,1.714-0.642,2.531-0.642c4.939,0,5.676,3.973,5.676,6.342C53.711,29.043,52.808,31.021,51.022,32.675z"/>
	</g>
</g>
<g>
	<g>
		<path fill="#FFFFFF" d="M44.855,24.627c-0.005-0.028-0.013-0.054-0.024-0.081c-0.011-0.026-0.023-0.051-0.038-0.074
			c-0.017-0.023-0.033-0.045-0.054-0.065c-0.02-0.02-0.041-0.038-0.063-0.055c-0.023-0.014-0.049-0.028-0.074-0.039
			c-0.026-0.01-0.053-0.019-0.079-0.023c-0.056-0.011-0.11-0.011-0.167,0c-0.027,0.005-0.054,0.014-0.079,0.023
			c-0.025,0.011-0.052,0.025-0.075,0.039c-0.021,0.017-0.044,0.035-0.063,0.055c-0.02,0.02-0.037,0.042-0.053,0.065
			c-0.016,0.023-0.029,0.047-0.039,0.074c-0.012,0.027-0.02,0.053-0.024,0.081c-0.005,0.027-0.008,0.055-0.008,0.083
			c0,0.028,0.003,0.056,0.008,0.084c0.005,0.026,0.013,0.054,0.024,0.081c0.01,0.025,0.023,0.05,0.039,0.073
			c0.016,0.024,0.033,0.046,0.053,0.066c0.02,0.02,0.042,0.039,0.063,0.053c0.023,0.017,0.05,0.03,0.075,0.04
			c0.025,0.012,0.052,0.02,0.079,0.025c0.027,0.005,0.057,0.008,0.082,0.008c0.028,0,0.058-0.003,0.085-0.008
			c0.026-0.005,0.053-0.013,0.079-0.025c0.025-0.01,0.051-0.023,0.074-0.04c0.022-0.014,0.044-0.033,0.063-0.053
			c0.021-0.02,0.037-0.042,0.054-0.066c0.015-0.023,0.027-0.048,0.038-0.073c0.012-0.027,0.02-0.055,0.024-0.081
			c0.007-0.028,0.009-0.056,0.009-0.084C44.864,24.682,44.862,24.654,44.855,24.627z"/>
	</g>
</g>
</svg>
