<?xml version="1.0" encoding="utf-8"?>
<!-- Generator: Adobe Illustrator 16.0.0, SVG Export Plug-In . SVG Version: 6.00 Build 0)  -->
<!DOCTYPE svg PUBLIC "-//W3C//DTD SVG 1.1//EN" "http://www.w3.org/Graphics/SVG/1.1/DTD/svg11.dtd">
<svg version="1.1" id="Capa_1" xmlns="http://www.w3.org/2000/svg" xmlns:xlink="http://www.w3.org/1999/xlink" x="0px" y="0px"
	 width="109.7px" height="56.69px" viewBox="0 0 109.7 56.69" enable-background="new 0 0 109.7 56.69" xml:space="preserve">
<path fill="none" d="M3.249,35.6c0-13.83,23.418-25.041,52.307-25.041c28.887,0,52.307,11.211,52.307,25.041"/>
<text transform="matrix(0.9895 -0.1445 0.1445 0.9895 35.4971 12.3418)"><tspan x="0" y="0" fill="#FFFFFF" font-family="'MyriadPro-Regular'" font-size="12">M</tspan><tspan x="9.481" y="0.067" fill="#FFFFFF" font-family="'MyriadPro-Regular'" font-size="12" rotate="4.257">É</tspan><tspan x="15.268" y="0.483" fill="#FFFFFF" font-family="'MyriadPro-Regular'" font-size="12" rotate="7.561">X</tspan><tspan x="21.969" y="1.413" fill="#FFFFFF" font-family="'MyriadPro-Regular'" font-size="12" rotate="10.027">I</tspan><tspan x="24.708" y="1.848" fill="#FFFFFF" font-family="'MyriadPro-Regular'" font-size="12" rotate="12.582">C</tspan><tspan x="31.375" y="3.303" fill="#FFFFFF" font-family="'MyriadPro-Regular'" font-size="12" rotate="16.78">O</tspan></text>
<path fill="none" d="M4.172,31.012c0,13.83,23.418,25.041,52.307,25.041c28.888,0,52.307-11.211,52.307-25.041"/>
<text transform="matrix(0.8137 0.5813 -0.5813 0.8137 9.812 42.6602)"><tspan x="0" y="0" fill="#FFFFFF" font-family="'MyriadPro-Regular'" font-size="12">H</tspan><tspan x="8.876" y="-0.158" fill="#FFFFFF" font-family="'MyriadPro-Regular'" font-size="12" rotate="-11.587">O</tspan><tspan x="17.706" y="-2.012" fill="#FFFFFF" font-family="'MyriadPro-Regular'" font-size="12" rotate="-19.843">M</tspan><tspan x="27.285" y="-5.559" fill="#FFFFFF" font-family="'MyriadPro-Regular'" font-size="12" rotate="-26.111">O</tspan><tspan x="35.038" y="-9.412" fill="#FFFFFF" font-family="'MyriadPro-Regular'" font-size="12" rotate="-30.677">C</tspan><tspan x="41.208" y="-13.138" fill="#FFFFFF" font-family="'MyriadPro-Regular'" font-size="12" rotate="-33.435">I</tspan><tspan x="43.81" y="-14.813" fill="#FFFFFF" font-family="'MyriadPro-Regular'" font-size="12" rotate="-35.989">S</tspan><tspan x="48.809" y="-18.439" fill="#FFFFFF" font-family="'MyriadPro-Regular'" font-size="12" rotate="-39.069">T</tspan><tspan x="53.597" y="-22.376" fill="#FFFFFF" font-family="'MyriadPro-Regular'" font-size="12" rotate="-41.606">I</tspan><tspan x="56.008" y="-24.431" fill="#FFFFFF" font-family="'MyriadPro-Regular'" font-size="12" rotate="-44.883">N</tspan><tspan x="61.918" y="-30.337" fill="#FFFFFF" font-family="'MyriadPro-Regular'" font-size="12" rotate="-50.246">U</tspan><tspan x="67.209" y="-36.774" fill="#FFFFFF" font-family="'MyriadPro-Regular'" font-size="12" rotate="-56.278">R</tspan><tspan x="70.957" y="-42.55" fill="#FFFFFF" font-family="'MyriadPro-Regular'" font-size="12" rotate="-61.26">I</tspan><tspan x="72.751" y="-45.573" fill="#FFFFFF" font-family="'MyriadPro-Regular'" font-size="12" rotate="-68.492">A</tspan></text>
<g>
	<path fill="#FFFFFF" d="M71.905,21.629c-9.52-9.52-25.01-9.52-34.529,0l-6.359,6.359l6.519,6.519
		c4.758,4.759,11.012,7.138,17.267,7.138c6.251,0,12.501-2.379,17.263-7.138l6.359-6.36L71.905,21.629z M70.933,33.372
		c-8.895,8.897-23.371,8.897-32.269,0l-5.383-5.384l5.227-5.227c8.895-8.895,23.37-8.895,32.269,0l5.383,5.385L70.933,33.372z"/>
	<path fill="#FFFFFF" d="M53.899,21.637c-3.093,0-5.61,2.515-5.61,5.606c0,0.44,0.36,0.799,0.804,0.799
		c0.44,0,0.801-0.358,0.801-0.799c0-2.208,1.795-4.004,4.005-4.004c0.44,0,0.801-0.36,0.801-0.8
		C54.7,21.996,54.339,21.637,53.899,21.637z"/>
	<path fill="#FFFFFF" d="M54.7,17.633c-5.741,0-10.41,4.67-10.41,10.409c0,5.741,4.669,10.413,10.41,10.413
		c5.737,0,10.41-4.672,10.41-10.413C65.109,22.304,60.44,17.633,54.7,17.633z M54.7,36.854c-4.86,0-8.812-3.955-8.812-8.812
		c0-4.855,3.952-8.807,8.812-8.807c4.854,0,8.805,3.951,8.805,8.807C63.505,32.899,59.557,36.854,54.7,36.854z"/>
</g>
</svg>
