<?xml version="1.0" encoding="utf-8"?>
<!-- Generator: Adobe Illustrator 16.0.0, SVG Export Plug-In . SVG Version: 6.00 Build 0)  -->
<!DOCTYPE svg PUBLIC "-//W3C//DTD SVG 1.1//EN" "http://www.w3.org/Graphics/SVG/1.1/DTD/svg11.dtd">
<svg version="1.1" id="Capa_1" xmlns="http://www.w3.org/2000/svg" xmlns:xlink="http://www.w3.org/1999/xlink" x="0px" y="0px"
	 width="107.72px" height="70.87px" viewBox="0 0 107.72 70.87" enable-background="new 0 0 107.72 70.87" xml:space="preserve">
<path fill="none" d="M2.723,40.979c0,13.83,23.418,25.041,52.307,25.041c28.888,0,52.307-11.211,52.307-25.041"/>
<text transform="matrix(0.8137 0.5813 -0.5813 0.8137 8.3628 52.6279)"><tspan x="0" y="0" fill="#FFFFFF" font-family="'MyriadPro-Regular'" font-size="12">H</tspan><tspan x="8.876" y="-0.158" fill="#FFFFFF" font-family="'MyriadPro-Regular'" font-size="12" rotate="-11.587">O</tspan><tspan x="17.706" y="-2.012" fill="#FFFFFF" font-family="'MyriadPro-Regular'" font-size="12" rotate="-19.843">M</tspan><tspan x="27.285" y="-5.559" fill="#FFFFFF" font-family="'MyriadPro-Regular'" font-size="12" rotate="-26.111">O</tspan><tspan x="35.038" y="-9.412" fill="#FFFFFF" font-family="'MyriadPro-Regular'" font-size="12" rotate="-30.677">C</tspan><tspan x="41.208" y="-13.138" fill="#FFFFFF" font-family="'MyriadPro-Regular'" font-size="12" rotate="-33.435">I</tspan><tspan x="43.81" y="-14.813" fill="#FFFFFF" font-family="'MyriadPro-Regular'" font-size="12" rotate="-35.989">S</tspan><tspan x="48.809" y="-18.439" fill="#FFFFFF" font-family="'MyriadPro-Regular'" font-size="12" rotate="-39.069">T</tspan><tspan x="53.597" y="-22.376" fill="#FFFFFF" font-family="'MyriadPro-Regular'" font-size="12" rotate="-41.606">I</tspan><tspan x="56.008" y="-24.431" fill="#FFFFFF" font-family="'MyriadPro-Regular'" font-size="12" rotate="-44.883">N</tspan><tspan x="61.918" y="-30.337" fill="#FFFFFF" font-family="'MyriadPro-Regular'" font-size="12" rotate="-50.246">U</tspan><tspan x="67.209" y="-36.774" fill="#FFFFFF" font-family="'MyriadPro-Regular'" font-size="12" rotate="-56.278">R</tspan><tspan x="70.957" y="-42.55" fill="#FFFFFF" font-family="'MyriadPro-Regular'" font-size="12" rotate="-61.26">I</tspan><tspan x="72.751" y="-45.573" fill="#FFFFFF" font-family="'MyriadPro-Regular'" font-size="12" rotate="-68.492">A</tspan></text>
<path fill="none" d="M2.722,36.469c0-13.829,23.418-25.041,52.307-25.041c28.887,0,52.307,11.211,52.307,25.041"/>
<text transform="matrix(0.9895 -0.1445 0.1445 0.9895 34.9702 13.2114)"><tspan x="0" y="0" fill="#FFFFFF" font-family="'MyriadPro-Regular'" font-size="12">M</tspan><tspan x="9.481" y="0.067" fill="#FFFFFF" font-family="'MyriadPro-Regular'" font-size="12" rotate="4.257">É</tspan><tspan x="15.268" y="0.483" fill="#FFFFFF" font-family="'MyriadPro-Regular'" font-size="12" rotate="7.561">X</tspan><tspan x="21.968" y="1.413" fill="#FFFFFF" font-family="'MyriadPro-Regular'" font-size="12" rotate="10.027">I</tspan><tspan x="24.708" y="1.848" fill="#FFFFFF" font-family="'MyriadPro-Regular'" font-size="12" rotate="12.582">C</tspan><tspan x="31.376" y="3.303" fill="#FFFFFF" font-family="'MyriadPro-Regular'" font-size="12" rotate="16.78">O</tspan></text>
<g>
	<path d="M149.615,10.736c-4.823-4.823-12.67-4.823-17.493,0l-3.222,3.221l3.302,3.302c2.411,2.411,5.579,3.618,8.747,3.618
		s6.334-1.206,8.746-3.618l3.222-3.222L149.615,10.736z M149.122,16.686c-4.507,4.506-11.84,4.506-16.347,0l-2.728-2.729
		l2.647-2.648c4.507-4.506,11.84-4.506,16.347,0l2.728,2.728L149.122,16.686z"/>
	<path d="M140.492,10.74c-1.566,0-2.841,1.274-2.841,2.84c0,0.224,0.183,0.405,0.406,0.405s0.405-0.182,0.405-0.405
		c0-1.119,0.91-2.028,2.029-2.028c0.224,0,0.405-0.182,0.405-0.406C140.897,10.921,140.716,10.74,140.492,10.74z"/>
	<path d="M140.897,8.711c-2.908,0-5.273,2.366-5.273,5.273c0,2.908,2.365,5.275,5.273,5.275c2.907,0,5.273-2.367,5.273-5.275
		C146.171,11.077,143.806,8.711,140.897,8.711z M140.897,18.448c-2.461,0-4.463-2.002-4.463-4.463c0-2.46,2.002-4.462,4.463-4.462
		c2.46,0,4.462,2.002,4.462,4.462C145.359,16.446,143.358,18.448,140.897,18.448z"/>
</g>
<g>
	<path fill="#FFFFFF" d="M91.982,15.096c-2.915-2.915-7.658-2.915-10.573,0l-1.947,1.947l1.996,1.996
		c1.457,1.458,3.372,2.187,5.287,2.187c1.914,0,3.828-0.729,5.286-2.187l1.947-1.947L91.982,15.096z M91.685,18.692
		c-2.724,2.724-7.156,2.724-9.881,0l-1.648-1.649l1.601-1.601c2.724-2.724,7.156-2.724,9.881,0l1.648,1.649L91.685,18.692z"/>
	<path fill="#FFFFFF" d="M86.469,15.098c-0.947,0-1.718,0.77-1.718,1.717c0,0.135,0.11,0.245,0.246,0.245
		c0.135,0,0.245-0.11,0.245-0.245c0-0.676,0.55-1.226,1.227-1.226c0.135,0,0.245-0.11,0.245-0.245
		C86.714,15.208,86.604,15.098,86.469,15.098z"/>
	<path fill="#FFFFFF" d="M86.714,13.872c-1.758,0-3.188,1.43-3.188,3.188c0,1.758,1.43,3.188,3.188,3.188
		c1.757,0,3.188-1.431,3.188-3.188C89.901,15.302,88.472,13.872,86.714,13.872z M86.714,19.758c-1.488,0-2.698-1.21-2.698-2.698
		c0-1.487,1.21-2.697,2.698-2.697c1.486,0,2.696,1.21,2.696,2.697C89.41,18.547,88.201,19.758,86.714,19.758z"/>
</g>
<g>
	<g>
		<path d="M-17.665,16.165c-0.505-0.504-1.176-0.782-1.889-0.782c-0.131,0-0.26,0.009-0.387,0.028
			c0.121-0.824-0.148-1.668-0.756-2.277c-0.505-0.504-1.176-0.782-1.89-0.782s-1.385,0.278-1.89,0.782
			c-0.473,0.473-0.75,1.102-0.779,1.769c-0.025,0.555,0.122,1.097,0.417,1.558l-5.91,5.91c-0.457-0.337-1.008-0.52-1.584-0.52
			c-0.713,0-1.384,0.278-1.889,0.782c-0.505,0.505-0.783,1.176-0.783,1.889c0,0.714,0.278,1.385,0.783,1.89
			c0.504,0.504,1.175,0.782,1.889,0.782c0.13,0,0.26-0.009,0.387-0.028c-0.122,0.824,0.146,1.668,0.755,2.277
			c0.504,0.504,1.175,0.783,1.889,0.783c0.713,0,1.384-0.278,1.889-0.783c0.498-0.498,0.775-1.16,0.782-1.864
			c0.006-0.585-0.177-1.146-0.52-1.609l5.873-5.873c0.481,0.407,1.084,0.628,1.722,0.628c0.714,0,1.385-0.278,1.89-0.782
			C-16.624,18.902-16.624,17.207-17.665,16.165z M-18.166,19.443c-0.371,0.371-0.864,0.576-1.389,0.576s-1.018-0.205-1.389-0.576
			c-0.024-0.024-0.05-0.051-0.073-0.078c-0.065-0.072-0.157-0.115-0.254-0.118c-0.098-0.002-0.191,0.035-0.26,0.104l-6.349,6.348
			c-0.136,0.136-0.138,0.356-0.005,0.495c0.735,0.765,0.722,1.998-0.028,2.749c-0.371,0.371-0.864,0.575-1.389,0.575
			c-0.525,0-1.018-0.204-1.389-0.575c-0.565-0.564-0.731-1.407-0.425-2.144c0.055-0.132,0.025-0.285-0.077-0.386
			c-0.067-0.068-0.158-0.103-0.25-0.103c-0.045,0-0.092,0.008-0.136,0.027c-0.24,0.1-0.494,0.15-0.755,0.15
			c-0.524,0-1.018-0.205-1.388-0.576c-0.371-0.371-0.575-0.864-0.575-1.389c0-0.524,0.204-1.018,0.575-1.389
			c0.371-0.371,0.864-0.575,1.388-0.575c0.51,0,0.993,0.194,1.36,0.546c0.139,0.134,0.359,0.131,0.496-0.005l6.353-6.353
			c0.129-0.129,0.139-0.335,0.021-0.476c-0.646-0.784-0.592-1.917,0.128-2.638c0.371-0.371,0.864-0.575,1.389-0.575
			s1.019,0.204,1.389,0.575c0.565,0.565,0.731,1.406,0.425,2.144c-0.055,0.132-0.025,0.285,0.076,0.386
			c0.102,0.101,0.254,0.131,0.387,0.077c0.24-0.1,0.494-0.15,0.756-0.15c0.523,0,1.017,0.204,1.388,0.575
			C-17.4,17.432-17.4,18.677-18.166,19.443z"/>
	</g>
</g>
<g>
	<g>
		<path d="M-27.244,21.118c-0.138-0.138-0.362-0.138-0.5,0l-1.65,1.65c-0.138,0.139-0.138,0.362,0,0.501
			c0.069,0.069,0.16,0.104,0.25,0.104c0.091,0,0.181-0.035,0.25-0.104l1.65-1.651C-27.105,21.48-27.105,21.256-27.244,21.118z"/>
	</g>
</g>
<g>
	<g>
		<path d="M-26.492,20.366c-0.138-0.138-0.362-0.138-0.5,0L-27,20.375c-0.138,0.138-0.138,0.362,0,0.5
			c0.069,0.069,0.16,0.104,0.25,0.104c0.091,0,0.181-0.035,0.25-0.104l0.008-0.008C-26.354,20.729-26.354,20.504-26.492,20.366z"/>
	</g>
</g>
<g>
	<g>
		<path fill="#FFFFFF" d="M22.401,14.947c-0.342-0.342-0.797-0.53-1.28-0.53c-0.088,0-0.176,0.006-0.262,0.019
			c0.082-0.559-0.101-1.131-0.513-1.543c-0.342-0.342-0.797-0.53-1.281-0.53s-0.938,0.188-1.281,0.53
			c-0.32,0.321-0.508,0.747-0.528,1.199c-0.017,0.376,0.083,0.743,0.282,1.056l-4.006,4.006c-0.31-0.228-0.683-0.352-1.074-0.352
			c-0.483,0-0.938,0.188-1.28,0.53c-0.342,0.342-0.53,0.797-0.53,1.28c0,0.484,0.188,0.939,0.53,1.281
			c0.342,0.342,0.797,0.53,1.28,0.53c0.088,0,0.176-0.006,0.263-0.019c-0.083,0.558,0.099,1.13,0.512,1.543
			c0.342,0.342,0.797,0.531,1.281,0.531c0.483,0,0.938-0.188,1.28-0.531c0.338-0.337,0.526-0.786,0.53-1.263
			c0.004-0.397-0.12-0.777-0.352-1.091l3.98-3.98c0.326,0.276,0.735,0.426,1.167,0.426c0.484,0,0.938-0.188,1.281-0.53
			C23.107,16.802,23.107,15.653,22.401,14.947z M22.062,17.169c-0.251,0.251-0.586,0.39-0.941,0.39s-0.69-0.139-0.941-0.39
			c-0.017-0.017-0.034-0.034-0.049-0.053c-0.044-0.049-0.107-0.078-0.172-0.08c-0.066-0.001-0.13,0.024-0.176,0.07l-4.303,4.303
			c-0.092,0.092-0.094,0.242-0.003,0.335c0.498,0.519,0.489,1.354-0.019,1.863c-0.252,0.251-0.586,0.389-0.941,0.389
			c-0.356,0-0.69-0.138-0.941-0.389c-0.383-0.383-0.496-0.954-0.288-1.454c0.038-0.089,0.017-0.193-0.052-0.262
			c-0.046-0.046-0.107-0.07-0.17-0.07c-0.031,0-0.062,0.006-0.092,0.018c-0.163,0.068-0.335,0.102-0.512,0.102
			c-0.355,0-0.689-0.139-0.941-0.39c-0.251-0.251-0.39-0.585-0.39-0.941c0-0.355,0.138-0.689,0.39-0.941s0.585-0.39,0.941-0.39
			c0.346,0,0.673,0.131,0.922,0.37c0.094,0.091,0.244,0.089,0.336-0.003l4.306-4.307c0.087-0.087,0.094-0.227,0.015-0.322
			c-0.438-0.531-0.401-1.299,0.086-1.788c0.252-0.251,0.586-0.39,0.941-0.39s0.69,0.139,0.941,0.39
			c0.383,0.383,0.496,0.953,0.288,1.453c-0.037,0.09-0.018,0.193,0.051,0.262c0.069,0.068,0.172,0.089,0.262,0.052
			c0.163-0.068,0.335-0.102,0.512-0.102c0.355,0,0.689,0.138,0.941,0.39C22.581,15.806,22.581,16.65,22.062,17.169z"/>
	</g>
</g>
<g>
	<g>
		<path fill="#FFFFFF" d="M16.452,14.861c-0.093-0.094-0.245-0.094-0.339,0l-1.119,1.119c-0.094,0.094-0.094,0.246,0,0.339
			c0.046,0.047,0.108,0.07,0.169,0.07s0.123-0.023,0.169-0.07l1.119-1.119C16.546,15.106,16.546,14.954,16.452,14.861z"/>
	</g>
</g>
<g>
	<g>
		<path fill="#FFFFFF" d="M16.962,14.351c-0.094-0.094-0.246-0.094-0.339,0l-0.005,0.005c-0.094,0.094-0.094,0.246,0,0.339
			c0.046,0.047,0.108,0.07,0.169,0.07s0.123-0.023,0.169-0.07l0.005-0.005C17.056,14.597,17.056,14.445,16.962,14.351z"/>
	</g>
</g>
<g>
	<g>
		<path d="M-15.565,50.524c-0.1-0.801-0.435-1.438-0.575-1.678c0.102-1.666-0.228-2.921-0.982-3.73
			c-0.587-0.631-1.273-0.809-1.622-0.859c-0.531-1.123-1.435-1.341-1.983-1.288c-1.028-0.957-1.98-0.979-2.606-0.823
			c-0.413,0.104-0.737,0.297-0.938,0.442c-0.201-0.146-0.524-0.339-0.938-0.442c-0.627-0.156-1.578-0.134-2.606,0.823
			c-0.55-0.053-1.453,0.165-1.984,1.288c-0.348,0.051-1.035,0.229-1.622,0.859c-0.754,0.81-1.084,2.064-0.983,3.73
			c-0.14,0.239-0.475,0.877-0.575,1.678c-0.113,0.907,0.06,2.187,1.479,3.225c-0.165,0.972-0.009,2.643,1.541,3.464
			c-0.064,0.353-0.107,0.965,0.208,1.488c0.248,0.412,0.657,0.683,1.218,0.807c0.284,0.438,1.26,1.791,2.479,1.791
			c0.008,0,0.015,0,0.023-0.001c0.653-0.009,1.243-0.395,1.759-1.148c0.517,0.754,1.106,1.14,1.759,1.148
			c1.228,0.019,2.217-1.351,2.501-1.79c0.561-0.124,0.971-0.395,1.219-0.807c0.315-0.523,0.272-1.136,0.208-1.488
			c1.55-0.821,1.706-2.492,1.542-3.464C-15.625,52.711-15.451,51.432-15.565,50.524z M-17.599,53.324
			c-0.118,0.079-0.173,0.223-0.139,0.359c0.022,0.09,0.533,2.226-1.365,3.038c-0.16,0.068-0.24,0.248-0.185,0.412
			c0.002,0.008,0.227,0.72-0.076,1.224c-0.165,0.273-0.471,0.449-0.909,0.521c-0.097,0.017-0.183,0.076-0.233,0.161
			c-0.261,0.445-1.123,1.592-1.984,1.592c-0.005,0-0.011,0-0.015,0c-0.519-0.008-1.013-0.436-1.469-1.271
			c-0.059-0.107-0.183-0.174-0.305-0.174c-0.122,0-0.234,0.066-0.292,0.174c-0.456,0.836-0.95,1.264-1.469,1.271
			c-0.863,0.015-1.737-1.144-2-1.592c-0.05-0.085-0.136-0.145-0.233-0.161c-0.437-0.072-0.742-0.247-0.906-0.519
			c-0.307-0.507-0.08-1.221-0.078-1.227c0.055-0.164-0.025-0.344-0.185-0.412c-1.887-0.809-1.387-2.948-1.365-3.038
			c0.034-0.137-0.021-0.28-0.138-0.359c-2.487-1.656-0.91-4.105-0.842-4.209c0.041-0.061,0.06-0.135,0.055-0.209
			c-0.108-1.519,0.157-2.637,0.788-3.324c0.607-0.661,1.342-0.678,1.371-0.679c0.136,0,0.259-0.082,0.309-0.21
			c0.374-0.932,0.973-1.064,1.284-1.064c0.1,0,0.171,0.014,0.194,0.02c0.114,0.028,0.234-0.005,0.316-0.088
			c0.678-0.678,1.375-0.938,2.072-0.774c0.534,0.126,0.88,0.461,0.883,0.463c0.063,0.063,0.147,0.099,0.236,0.099h0.012
			c0.089,0,0.173-0.035,0.235-0.099c0.004-0.004,0.339-0.328,0.858-0.457c0.705-0.176,1.41,0.082,2.096,0.769
			c0.081,0.081,0.202,0.114,0.314,0.089c0.1-0.023,0.988-0.188,1.481,1.045c0.049,0.125,0.172,0.208,0.307,0.209
			c0.031,0.001,0.766,0.018,1.373,0.679c0.632,0.688,0.897,1.806,0.789,3.324c-0.005,0.074,0.014,0.148,0.055,0.209
			c0.004,0.007,0.425,0.646,0.531,1.492C-16.088,51.711-16.55,52.626-17.599,53.324z"/>
	</g>
</g>
<g>
	<g>
		<path d="M-18.667,44.465c-0.058-0.174-0.248-0.269-0.422-0.21c-2.072,0.69-2.096,2.423-2.096,2.496
			c0,0.183,0.148,0.331,0.331,0.332c0.001,0,0.001,0,0.002,0c0.182,0,0.331-0.147,0.333-0.33c0-0.055,0.037-1.331,1.641-1.866
			C-18.703,44.829-18.609,44.64-18.667,44.465z"/>
	</g>
</g>
<g>
	<g>
		<path d="M-17.162,53.4c-0.111-0.146-0.32-0.175-0.467-0.063c-0.543,0.414-1.034,0.562-1.459,0.439
			c-0.756-0.218-1.137-1.215-1.141-1.225c-0.063-0.172-0.255-0.261-0.428-0.197c-0.172,0.064-0.26,0.256-0.196,0.429
			c0.02,0.054,0.498,1.318,1.577,1.632c0.161,0.047,0.325,0.07,0.492,0.07c0.497,0,1.02-0.207,1.56-0.618
			C-17.078,53.756-17.05,53.547-17.162,53.4z"/>
	</g>
</g>
<g>
	<g>
		<path d="M-22.796,53.678c-0.13-0.13-0.341-0.13-0.471,0c-0.13,0.13-0.13,0.342,0,0.472c1.082,1.082,0.857,2.127,0.846,2.177
			c-0.044,0.178,0.065,0.357,0.242,0.402c0.027,0.006,0.054,0.01,0.081,0.01c0.15,0,0.286-0.101,0.324-0.252
			C-21.76,56.428-21.434,55.042-22.796,53.678z"/>
	</g>
</g>
<g>
	<g>
		<path d="M-17.626,50.556c-0.062-0.174-0.253-0.263-0.426-0.201c-0.068,0.024-1.658,0.581-2.501-0.543
			c-0.438-0.584-0.626-1.083-0.778-1.484c-0.186-0.492-0.361-0.958-0.943-1.006c-0.182-0.016-0.345,0.121-0.36,0.305
			s0.122,0.345,0.305,0.359c0.139,0.012,0.191,0.092,0.375,0.576c0.157,0.418,0.374,0.99,0.869,1.65
			c0.581,0.772,1.391,0.967,2.059,0.967c0.646,0,1.16-0.183,1.202-0.197C-17.651,50.918-17.563,50.728-17.626,50.556z"/>
	</g>
</g>
<g>
	<g>
		<path d="M-24.278,42.681c-0.184,0-0.333,0.149-0.333,0.333V59.52c0,0.184,0.149,0.333,0.333,0.333s0.333-0.149,0.333-0.333V43.014
			C-23.944,42.83-24.094,42.681-24.278,42.681z"/>
	</g>
</g>
<g>
	<g>
		<path d="M-21.841,45.552c-0.002-0.184-0.148-0.333-0.338-0.328c-0.184,0.002-0.331,0.153-0.329,0.337
			c0.001,0.021,0.02,2.1-1.02,3.418c-0.115,0.145-0.09,0.354,0.055,0.467c0.062,0.05,0.134,0.072,0.206,0.072
			c0.099,0,0.197-0.043,0.262-0.127C-21.821,47.89-21.839,45.646-21.841,45.552z"/>
	</g>
</g>
<g>
	<g>
		<path d="M-21.163,55.76c-1.47,0-2.157,2.012-2.185,2.098c-0.058,0.174,0.036,0.362,0.21,0.421
			c0.035,0.011,0.071,0.018,0.106,0.018c0.139,0,0.269-0.088,0.315-0.229c0.154-0.456,0.732-1.641,1.553-1.641
			c0.184,0,0.333-0.149,0.333-0.333C-20.83,55.909-20.979,55.76-21.163,55.76z"/>
	</g>
</g>
<g>
	<g>
		<path d="M-20.788,42.918c-0.147-0.11-0.356-0.079-0.466,0.068l-0.8,1.074c-0.11,0.146-0.079,0.355,0.069,0.467
			c0.059,0.044,0.128,0.064,0.198,0.064c0.103,0,0.203-0.046,0.268-0.133l0.799-1.075C-20.61,43.236-20.641,43.027-20.788,42.918z"
			/>
	</g>
</g>
<g>
	<g>
		<path d="M-27.611,45.071c-0.735,0-1.333,0.599-1.333,1.333c0,0.735,0.598,1.334,1.333,1.334c0.735,0,1.333-0.599,1.333-1.334
			C-26.278,45.67-26.876,45.071-27.611,45.071z M-27.611,47.071c-0.367,0-0.667-0.3-0.667-0.667s0.299-0.666,0.667-0.666
			c0.368,0,0.667,0.299,0.667,0.666C-26.945,46.771-27.244,47.071-27.611,47.071z"/>
	</g>
</g>
<g>
	<g>
		<path d="M-29.944,49.404c-0.735,0-1.333,0.598-1.333,1.333s0.598,1.333,1.333,1.333c0.735,0,1.333-0.598,1.333-1.333
			C-28.611,50.002-29.209,49.404-29.944,49.404z M-29.944,51.404c-0.368,0-0.667-0.299-0.667-0.667s0.299-0.667,0.667-0.667
			s0.667,0.299,0.667,0.667S-29.577,51.404-29.944,51.404z"/>
	</g>
</g>
<g>
	<g>
		<path d="M-26.611,52.403c-0.735,0-1.333,0.599-1.333,1.333c0,0.735,0.598,1.334,1.333,1.334c0.735,0,1.333-0.599,1.333-1.334
			C-25.278,53.002-25.876,52.403-26.611,52.403z M-26.611,54.403c-0.368,0-0.667-0.299-0.667-0.667c0-0.367,0.299-0.666,0.667-0.666
			s0.667,0.299,0.667,0.666C-25.945,54.104-26.244,54.403-26.611,54.403z"/>
	</g>
</g>
<g>
	<g>
		<path d="M-26.611,56.07c-0.735,0-1.333,0.598-1.333,1.332c0,0.735,0.598,1.334,1.333,1.334c0.735,0,1.333-0.599,1.333-1.334
			C-25.278,56.668-25.876,56.07-26.611,56.07z M-26.611,58.069c-0.368,0-0.667-0.299-0.667-0.667c0-0.367,0.299-0.666,0.667-0.666
			s0.667,0.299,0.667,0.666C-25.945,57.771-26.244,58.069-26.611,58.069z"/>
	</g>
</g>
<g>
	<g>
		<path d="M-27.611,47.071c-0.184,0-0.333,0.148-0.333,0.333v3.333c0,0.184,0.149,0.333,0.333,0.333
			c0.185,0,0.333-0.149,0.333-0.333v-3.333C-27.278,47.22-27.427,47.071-27.611,47.071z"/>
	</g>
</g>
<g>
	<g>
		<path d="M-26.611,50.404h-2.333c-0.184,0-0.333,0.149-0.333,0.333s0.149,0.333,0.333,0.333h2.333c0.184,0,0.333-0.149,0.333-0.333
			S-26.427,50.404-26.611,50.404z"/>
	</g>
</g>
<g>
	<g>
		<path d="M-26.611,50.404c-0.184,0-0.333,0.149-0.333,0.333v1.999c0,0.185,0.149,0.334,0.333,0.334s0.333-0.149,0.333-0.334v-1.999
			C-26.278,50.554-26.427,50.404-26.611,50.404z"/>
	</g>
</g>
<g>
	<g>
		<path d="M-26.611,54.403c-0.184,0-0.333,0.149-0.333,0.333v1.666c0,0.185,0.149,0.334,0.333,0.334s0.333-0.149,0.333-0.334v-1.666
			C-26.278,54.553-26.427,54.403-26.611,54.403z"/>
	</g>
</g>
<g>
	<g>
		<path fill="#FFFFFF" d="M17.398,36.136c-0.068-0.548-0.297-0.985-0.394-1.148c0.07-1.14-0.156-1.999-0.672-2.552
			c-0.402-0.432-0.871-0.553-1.109-0.588c-0.364-0.768-0.982-0.917-1.357-0.881c-0.704-0.655-1.355-0.67-1.784-0.563
			c-0.283,0.071-0.504,0.203-0.642,0.303c-0.137-0.1-0.359-0.232-0.641-0.303c-0.429-0.107-1.08-0.092-1.783,0.563
			c-0.376-0.037-0.994,0.113-1.358,0.881c-0.238,0.035-0.708,0.157-1.109,0.588c-0.516,0.554-0.742,1.413-0.672,2.552
			c-0.096,0.164-0.325,0.6-0.393,1.148c-0.078,0.62,0.041,1.496,1.011,2.206c-0.113,0.665-0.006,1.809,1.055,2.37
			c-0.044,0.241-0.074,0.66,0.143,1.019c0.169,0.281,0.449,0.467,0.833,0.551c0.194,0.301,0.862,1.226,1.696,1.226
			c0.005,0,0.01,0,0.016,0c0.447-0.006,0.851-0.271,1.204-0.786c0.354,0.516,0.757,0.78,1.204,0.786
			c0.84,0.013,1.517-0.925,1.711-1.226c0.384-0.084,0.665-0.27,0.834-0.551c0.215-0.358,0.186-0.777,0.142-1.019
			c1.061-0.562,1.167-1.705,1.055-2.37C17.357,37.632,17.476,36.756,17.398,36.136z M16.007,38.051
			c-0.081,0.054-0.118,0.153-0.095,0.246c0.016,0.062,0.365,1.522-0.934,2.079c-0.109,0.046-0.164,0.169-0.126,0.281
			c0.001,0.006,0.155,0.493-0.052,0.837c-0.113,0.188-0.322,0.308-0.622,0.357c-0.066,0.012-0.125,0.052-0.159,0.11
			c-0.179,0.305-0.769,1.089-1.357,1.089c-0.004,0-0.008,0-0.011,0c-0.354-0.006-0.693-0.298-1.005-0.869
			c-0.04-0.074-0.125-0.12-0.208-0.12s-0.16,0.046-0.2,0.12c-0.312,0.571-0.65,0.863-1.005,0.869
			c-0.59,0.011-1.189-0.782-1.368-1.089c-0.034-0.059-0.093-0.099-0.159-0.11c-0.299-0.05-0.508-0.169-0.621-0.354
			c-0.21-0.347-0.054-0.836-0.053-0.84c0.038-0.112-0.018-0.235-0.126-0.281c-1.292-0.554-0.949-2.018-0.934-2.079
			c0.023-0.093-0.015-0.192-0.095-0.246c-1.702-1.133-0.623-2.809-0.576-2.879c0.028-0.042,0.041-0.092,0.038-0.144
			c-0.074-1.039,0.107-1.804,0.54-2.274c0.415-0.452,0.918-0.463,0.938-0.464c0.093,0,0.177-0.056,0.211-0.144
			c0.256-0.637,0.666-0.729,0.879-0.729c0.068,0,0.117,0.01,0.133,0.014c0.078,0.02,0.16-0.003,0.217-0.06
			c0.464-0.464,0.941-0.642,1.417-0.53c0.365,0.086,0.602,0.315,0.604,0.316c0.043,0.043,0.101,0.068,0.161,0.068h0.009
			c0.061,0,0.118-0.024,0.161-0.068c0.002-0.002,0.231-0.224,0.587-0.313c0.482-0.12,0.965,0.056,1.434,0.526
			c0.056,0.055,0.138,0.078,0.215,0.061c0.068-0.017,0.677-0.128,1.014,0.715c0.034,0.085,0.117,0.142,0.21,0.143
			c0.021,0.001,0.524,0.012,0.939,0.464c0.432,0.471,0.614,1.236,0.54,2.274c-0.003,0.051,0.01,0.102,0.038,0.144
			c0.002,0.004,0.29,0.441,0.363,1.021C17.04,36.947,16.725,37.573,16.007,38.051z"/>
	</g>
</g>
<g>
	<g>
		<path fill="#FFFFFF" d="M15.276,31.989c-0.04-0.119-0.169-0.184-0.289-0.144c-1.418,0.472-1.435,1.658-1.435,1.708
			c0,0.125,0.102,0.226,0.227,0.227c0.001,0,0.001,0,0.001,0c0.125,0,0.227-0.101,0.228-0.226c0-0.037,0.025-0.911,1.123-1.277
			C15.251,32.238,15.315,32.109,15.276,31.989z"/>
	</g>
</g>
<g>
	<g>
		<path fill="#FFFFFF" d="M16.306,38.104c-0.076-0.101-0.219-0.12-0.319-0.044c-0.372,0.283-0.708,0.385-0.999,0.301
			c-0.517-0.148-0.778-0.831-0.781-0.838c-0.043-0.118-0.175-0.178-0.292-0.135c-0.118,0.044-0.178,0.175-0.134,0.293
			c0.013,0.037,0.34,0.902,1.079,1.116c0.11,0.032,0.223,0.049,0.337,0.049c0.34,0,0.698-0.142,1.067-0.423
			C16.363,38.346,16.382,38.204,16.306,38.104z"/>
	</g>
</g>
<g>
	<g>
		<path fill="#FFFFFF" d="M12.451,38.293c-0.089-0.089-0.234-0.089-0.323,0s-0.089,0.233,0,0.323
			c0.74,0.739,0.587,1.455,0.579,1.489c-0.03,0.121,0.044,0.244,0.166,0.274c0.019,0.005,0.037,0.007,0.056,0.007
			c0.103,0,0.195-0.069,0.221-0.173C13.16,40.175,13.383,39.226,12.451,38.293z"/>
	</g>
</g>
<g>
	<g>
		<path fill="#FFFFFF" d="M15.988,36.156c-0.043-0.118-0.174-0.179-0.292-0.138c-0.047,0.018-1.134,0.397-1.711-0.371
			c-0.3-0.399-0.429-0.741-0.532-1.016c-0.127-0.336-0.248-0.655-0.646-0.688c-0.125-0.011-0.236,0.083-0.246,0.208
			s0.083,0.235,0.208,0.246c0.095,0.008,0.131,0.063,0.256,0.394c0.107,0.286,0.255,0.678,0.595,1.129
			c0.397,0.529,0.952,0.662,1.409,0.662c0.442,0,0.793-0.125,0.822-0.135C15.971,36.404,16.031,36.274,15.988,36.156z"/>
	</g>
</g>
<g>
	<g>
		<path fill="#FFFFFF" d="M11.437,30.769c-0.126,0-0.228,0.103-0.228,0.228V42.29c0,0.125,0.102,0.228,0.228,0.228
			c0.126,0,0.229-0.103,0.229-0.228V30.996C11.665,30.871,11.563,30.769,11.437,30.769z"/>
	</g>
</g>
<g>
	<g>
		<path fill="#FFFFFF" d="M13.104,32.733c-0.001-0.125-0.101-0.228-0.231-0.225c-0.125,0.001-0.227,0.105-0.225,0.23
			c0,0.015,0.014,1.437-0.697,2.339c-0.079,0.099-0.062,0.242,0.037,0.319c0.042,0.034,0.092,0.05,0.141,0.05
			c0.068,0,0.135-0.03,0.18-0.087C13.118,34.333,13.105,32.798,13.104,32.733z"/>
	</g>
</g>
<g>
	<g>
		<path fill="#FFFFFF" d="M13.568,39.717c-1.006,0-1.476,1.377-1.495,1.436c-0.04,0.119,0.024,0.248,0.144,0.288
			c0.024,0.007,0.049,0.012,0.073,0.012c0.095,0,0.184-0.06,0.216-0.155c0.105-0.313,0.5-1.123,1.063-1.123
			c0.125,0,0.228-0.103,0.228-0.228C13.796,39.819,13.693,39.717,13.568,39.717z"/>
	</g>
</g>
<g>
	<g>
		<path fill="#FFFFFF" d="M13.825,30.931c-0.101-0.076-0.244-0.054-0.319,0.046l-0.547,0.735c-0.075,0.1-0.054,0.243,0.047,0.319
			c0.04,0.03,0.088,0.044,0.136,0.044c0.07,0,0.139-0.032,0.184-0.091l0.546-0.736C13.946,31.148,13.925,31.006,13.825,30.931z"/>
	</g>
</g>
<g>
	<g>
		<path fill="#FFFFFF" d="M9.156,32.404c-0.503,0-0.912,0.41-0.912,0.912c0,0.503,0.409,0.913,0.912,0.913
			c0.503,0,0.913-0.41,0.913-0.913C10.068,32.814,9.659,32.404,9.156,32.404z M9.156,33.773c-0.251,0-0.456-0.206-0.456-0.457
			c0-0.251,0.205-0.456,0.456-0.456c0.251,0,0.457,0.205,0.457,0.456C9.612,33.567,9.407,33.773,9.156,33.773z"/>
	</g>
</g>
<g>
	<g>
		<path fill="#FFFFFF" d="M7.56,35.369c-0.503,0-0.912,0.409-0.912,0.912c0,0.503,0.409,0.912,0.912,0.912
			c0.503,0,0.912-0.409,0.912-0.912C8.472,35.778,8.063,35.369,7.56,35.369z M7.56,36.737c-0.251,0-0.456-0.205-0.456-0.456
			c0-0.252,0.204-0.457,0.456-0.457s0.457,0.205,0.457,0.457C8.016,36.532,7.811,36.737,7.56,36.737z"/>
	</g>
</g>
<g>
	<g>
		<path fill="#FFFFFF" d="M9.84,37.421c-0.503,0-0.913,0.409-0.913,0.912s0.41,0.913,0.913,0.913s0.912-0.41,0.912-0.913
			S10.343,37.421,9.84,37.421z M9.84,38.789c-0.251,0-0.456-0.204-0.456-0.456c0-0.251,0.205-0.455,0.456-0.455
			s0.456,0.204,0.456,0.455C10.296,38.585,10.092,38.789,9.84,38.789z"/>
	</g>
</g>
<g>
	<g>
		<path fill="#FFFFFF" d="M9.84,39.93c-0.503,0-0.913,0.409-0.913,0.912c0,0.502,0.41,0.912,0.913,0.912s0.912-0.41,0.912-0.912
			C10.752,40.339,10.343,39.93,9.84,39.93z M9.84,41.298c-0.251,0-0.456-0.205-0.456-0.456c0-0.252,0.205-0.456,0.456-0.456
			s0.456,0.204,0.456,0.456C10.296,41.093,10.092,41.298,9.84,41.298z"/>
	</g>
</g>
<g>
	<g>
		<path fill="#FFFFFF" d="M9.156,33.773c-0.125,0-0.228,0.102-0.228,0.228v2.281c0,0.126,0.103,0.228,0.228,0.228
			c0.126,0,0.229-0.102,0.229-0.228V34C9.384,33.875,9.282,33.773,9.156,33.773z"/>
	</g>
</g>
<g>
	<g>
		<path fill="#FFFFFF" d="M9.84,36.053H8.244c-0.126,0-0.228,0.103-0.228,0.229s0.102,0.228,0.228,0.228H9.84
			c0.126,0,0.228-0.102,0.228-0.228S9.966,36.053,9.84,36.053z"/>
	</g>
</g>
<g>
	<g>
		<path fill="#FFFFFF" d="M9.84,36.053c-0.126,0-0.228,0.103-0.228,0.229v1.368c0,0.125,0.102,0.229,0.228,0.229
			c0.126,0,0.228-0.104,0.228-0.229v-1.368C10.068,36.155,9.966,36.053,9.84,36.053z"/>
	</g>
</g>
<g>
	<g>
		<path fill="#FFFFFF" d="M9.84,38.789c-0.126,0-0.228,0.103-0.228,0.228v1.141c0,0.126,0.102,0.229,0.228,0.229
			c0.126,0,0.228-0.103,0.228-0.229v-1.141C10.068,38.892,9.966,38.789,9.84,38.789z"/>
	</g>
</g>
<g>
	<g>
		<path fill="#FFFFFF" d="M103.26,34.471c-0.675-0.689-1.576-1.068-2.54-1.068c-0.949,0-1.841,0.369-2.512,1.04l-0.346,0.347
			l-0.348-0.347c-0.671-0.671-1.563-1.04-2.511-1.04c-0.949,0-1.841,0.369-2.512,1.04s-1.04,1.563-1.04,2.511
			c0,0.949,0.369,1.842,1.04,2.512l4.439,4.439c0.256,0.257,0.593,0.385,0.93,0.385s0.674-0.128,0.93-0.385l4.411-4.41
			C104.588,38.108,104.613,35.855,103.26,34.471z M102.736,39.029l-4.409,4.41c-0.257,0.256-0.675,0.256-0.931,0L92.957,39
			c-0.547-0.546-0.848-1.273-0.848-2.047c0-0.772,0.301-1.499,0.848-2.046s1.273-0.849,2.047-0.849c0.772,0,1.5,0.302,2.046,0.849
			l0.347,0.347l-0.53,0.531c-0.129,0.129-0.128,0.337,0,0.466c0.063,0.063,0.147,0.096,0.232,0.096c0.084,0,0.168-0.032,0.232-0.097
			l1.342-1.343c0.547-0.547,1.273-0.849,2.047-0.849c0.785,0,1.521,0.31,2.069,0.872C103.893,36.059,103.869,37.897,102.736,39.029z
			"/>
	</g>
</g>
<text transform="matrix(1 0 0 1 45.6035 35.1406)" fill="#FFFFFF" font-family="'MyriadPro-Regular'" font-size="12">Hcy</text>
</svg>
